# xmcd
#
# Track frame offsets: 
#        150
#        28703
#        44717
#        61953
#        92080
#        112594
#        130817
#        148601
#        165825
#        184554
#        203013
#
# Disc length: 2992 seconds
#
# Revision: 0
# Processed by: cddbd v1.5.2PL0 Copyright (c) Steve Scherf et al.
# Submitted via: ExactAudioCopy v1.0b1
#
DISCID=8a0bae0b
DTITLE=Nancy Wilson - Life, Love And Harmony
DYEAR=1979
DGENRE=Soul
TTITLE0=Life, Love And Harmony
TTITLE1=Here's To Us
TTITLE2=This Is Our Song
TTITLE3=Sunshine
TTITLE4=You're The One
TTITLE5=Open Up Your Heart And Take Me In
TTITLE6=Wrapped Up In The Comfort Of Your Love
TTITLE7=You Bring Out The Best Of The Woman In Me
TTITLE8=Heaven
TTITLE9=Life, Love And Harmony (US Single)
TTITLE10=Sunshine (US Single)
EXTD=
EXTT0=
EXTT1=
EXTT2=
EXTT3=
EXTT4=
EXTT5=
EXTT6=
EXTT7=
EXTT8=
EXTT9=
EXTT10=
PLAYORDER=
